<mxfile host="app.diagrams.net" agent="Mozilla/5.0 (Macintosh; Intel Mac OS X 10_15_7) AppleWebKit/537.36 (KHTML, like Gecko) Chrome/131.0.0.0 Safari/537.36" version="24.8.0">
  <diagram name="Page-1" id="6VB-ajY718vbTi7Ewjcx">
    <mxGraphModel dx="896" dy="553" grid="1" gridSize="10" guides="1" tooltips="1" connect="1" arrows="1" fold="1" page="1" pageScale="1" pageWidth="827" pageHeight="1169" math="0" shadow="0">
      <root>
        <mxCell id="0" />
        <mxCell id="1" parent="0" />
        <mxCell id="C-kgjMw8zYWyGJUFUiNk-2" value="NamazTime" style="whiteSpace=wrap;html=1;aspect=fixed;" vertex="1" parent="1">
          <mxGeometry x="60" y="290" width="220" height="220" as="geometry" />
        </mxCell>
        <mxCell id="C-kgjMw8zYWyGJUFUiNk-3" value="Telegram Server" style="whiteSpace=wrap;html=1;aspect=fixed;" vertex="1" parent="1">
          <mxGeometry x="304" y="30" width="220" height="220" as="geometry" />
        </mxCell>
        <mxCell id="C-kgjMw8zYWyGJUFUiNk-6" style="edgeStyle=orthogonalEdgeStyle;rounded=0;orthogonalLoop=1;jettySize=auto;html=1;entryX=0.5;entryY=1;entryDx=0;entryDy=0;" edge="1" parent="1" source="C-kgjMw8zYWyGJUFUiNk-4" target="C-kgjMw8zYWyGJUFUiNk-3">
          <mxGeometry relative="1" as="geometry" />
        </mxCell>
        <mxCell id="C-kgjMw8zYWyGJUFUiNk-4" value="Telegram Bot" style="whiteSpace=wrap;html=1;aspect=fixed;" vertex="1" parent="1">
          <mxGeometry x="560" y="290" width="220" height="220" as="geometry" />
        </mxCell>
        <mxCell id="C-kgjMw8zYWyGJUFUiNk-7" value="1. /login" style="text;html=1;align=center;verticalAlign=middle;whiteSpace=wrap;rounded=0;" vertex="1" parent="1">
          <mxGeometry x="440" y="360" width="60" height="30" as="geometry" />
        </mxCell>
        <mxCell id="C-kgjMw8zYWyGJUFUiNk-9" value="2.Request for login" style="text;html=1;align=center;verticalAlign=middle;whiteSpace=wrap;rounded=0;" vertex="1" parent="1">
          <mxGeometry x="170" y="180" width="60" height="30" as="geometry" />
        </mxCell>
        <mxCell id="C-kgjMw8zYWyGJUFUiNk-11" value="" style="shape=flexArrow;endArrow=classic;startArrow=classic;html=1;rounded=0;" edge="1" parent="1">
          <mxGeometry width="100" height="100" relative="1" as="geometry">
            <mxPoint x="160" y="280" as="sourcePoint" />
            <mxPoint x="300" y="140" as="targetPoint" />
          </mxGeometry>
        </mxCell>
        <mxCell id="C-kgjMw8zYWyGJUFUiNk-12" value="3. Response&lt;div&gt;(Login button)&lt;/div&gt;" style="text;html=1;align=center;verticalAlign=middle;whiteSpace=wrap;rounded=0;" vertex="1" parent="1">
          <mxGeometry x="220" y="230" width="60" height="30" as="geometry" />
        </mxCell>
        <mxCell id="C-kgjMw8zYWyGJUFUiNk-13" style="edgeStyle=orthogonalEdgeStyle;rounded=0;orthogonalLoop=1;jettySize=auto;html=1;entryX=0.564;entryY=-0.014;entryDx=0;entryDy=0;entryPerimeter=0;" edge="1" parent="1" source="C-kgjMw8zYWyGJUFUiNk-3" target="C-kgjMw8zYWyGJUFUiNk-4">
          <mxGeometry relative="1" as="geometry" />
        </mxCell>
        <mxCell id="C-kgjMw8zYWyGJUFUiNk-14" value="4. Display login button" style="text;html=1;align=center;verticalAlign=middle;whiteSpace=wrap;rounded=0;" vertex="1" parent="1">
          <mxGeometry x="580" y="100" width="60" height="30" as="geometry" />
        </mxCell>
      </root>
    </mxGraphModel>
  </diagram>
</mxfile>
